<?xml version="1.0" encoding="utf-8"?>
<!-- Generator: Adobe Illustrator 24.3.0, SVG Export Plug-In . SVG Version: 6.00 Build 0)  -->
<svg version="1.1" id="레이어_1" xmlns="http://www.w3.org/2000/svg" xmlns:xlink="http://www.w3.org/1999/xlink" x="0px"
	 y="0px" viewBox="0 0 24 24" style="enable-background:new 0 0 24 24;" xml:space="preserve">
<style type="text/css">
	.st0{fill:#007246;}
</style>
<g>
	<path class="st0" d="M12,7.6c-2.5,0-4.5,2-4.5,4.5c0,2.5,2,4.5,4.5,4.5s4.5-2,4.5-4.5C16.5,9.6,14.5,7.6,12,7.6z M12,15.1
		c-1.6,0-3-1.3-3-3c0-1.6,1.3-3,3-3s3,1.3,3,3C15,13.7,13.6,15.1,12,15.1z"/>
	<path class="st0" d="M24,11.2h-3.1c-0.4-4.4-3.8-7.8-8.2-8.2V0h-1.5v3.1c-4.4,0.4-7.8,3.8-8.2,8.2H0v1.5h3.1
		c0.4,4.4,3.8,7.8,8.2,8.2V24h1.5v-3.1c4.4-0.4,7.8-3.8,8.2-8.2H24V11.2z M12,19.5c-4.1,0-7.5-3.4-7.5-7.5S7.9,4.5,12,4.5
		s7.5,3.4,7.5,7.5S16.1,19.5,12,19.5z"/>
</g>
</svg>
