<svg xmlns="http://www.w3.org/2000/svg" width="16.002" height="16" viewBox="0 0 16.002 16">
  <g id="그룹_3881" data-name="그룹 3881" transform="translate(-69.945 -47.169)">
    <g id="Layer_1_사본" data-name="Layer 1 사본" transform="translate(69.945 47.169)">
      <path id="패스_164" data-name="패스 164" d="M85.68,52.438l-7.375-5.156a.625.625,0,0,0-.716,0l-7.375,5.156a.625.625,0,0,0-.267.512l0,9.594a.625.625,0,0,0,.625.625H85.32a.625.625,0,0,0,.625-.625l0-9.594A.625.625,0,0,0,85.68,52.438Z" transform="translate(-69.945 -47.169)" fill="#222"/>
    </g>
    <g id="레이어_4" data-name="레이어 4" transform="translate(74.696 53.01)">
      <path id="패스_165" data-name="패스 165" d="M222.586,242.73a.625.625,0,0,0,.625-.625v-2h2.219a3.031,3.031,0,0,0,0-6.062h-2.844a.625.625,0,0,0-.625.625V242.1A.625.625,0,0,0,222.586,242.73Zm.625-7.437h2.219a1.781,1.781,0,0,1,0,3.562h-2.219Z" transform="translate(-221.961 -235.042)" fill="#fff"/>
    </g>
  </g>
</svg>
